<svg width="29" height="34" viewBox="0 0 29 34" fill="none" xmlns="http://www.w3.org/2000/svg">
<path d="M9.1242 24.2876L3.31863 27.4098C2.97794 27.593 0.284882 28.686 0 28.9314C5.38722 32.988 10.1419 33.8919 14.9158 33.8919C19.6546 33.8919 24.868 31.3119 28.2432 28.5364C27.9319 28.2773 26.7216 27.635 26.3471 27.4511L20.1303 24.3868C19.3271 23.9908 18.8197 23.1815 18.8197 22.2962V19.8914C18.9945 19.6952 19.1942 19.4433 19.4079 19.1458C20.2552 17.9658 20.8962 16.6679 21.3404 15.3062C22.1377 15.0637 22.7251 14.3376 22.7251 13.4747V10.9078C22.7251 10.3431 22.4703 9.83856 22.0746 9.48529V5.77457C22.0746 5.77457 22.8477 0 14.9158 0C6.98392 0 7.75706 5.77457 7.75706 5.77457V9.48529C7.36058 9.83856 7.10653 10.3431 7.10653 10.9078V13.4747C7.10653 14.1508 7.46704 14.7459 8.0067 15.0897C8.65723 17.8818 10.3607 19.8914 10.3607 19.8914V22.2368C10.3599 23.091 9.8856 23.8779 9.1242 24.2876Z" fill="white"/>
</svg>
